<svg xmlns="http://www.w3.org/2000/svg" width="760" height="145" viewBox="0 0 760 145" role="img" aria-labelledby="title desc">
  <title id="title">Codex plugin marketplace source selector</title>
  <desc id="desc">Codex plugin directory with the SpecGuard Plugins marketplace source highlighted.</desc>
  <rect width="760" height="145" fill="#151515"/>
  <rect x="12" y="20" width="516" height="30" rx="9" fill="#242424" stroke="#3a3a3a"/>
  <circle cx="31" cy="35" r="5" fill="none" stroke="#9aa0a6" stroke-width="1.4"/>
  <path d="M35 39 L40 44" stroke="#9aa0a6" stroke-width="1.4" stroke-linecap="round"/>
  <text x="48" y="40" fill="#bdbdbd" font-family="Arial, sans-serif" font-size="14">Plugin search</text>
  <rect x="536" y="20" width="132" height="30" rx="9" fill="#242424"/>
  <text x="551" y="40" fill="#ffffff" font-family="Arial, sans-serif" font-size="14" font-weight="700">Built by OpenAI</text>
  <path d="M648 32 L654 38 L660 32" fill="none" stroke="#d0d0d0" stroke-width="1.5" stroke-linecap="round" stroke-linejoin="round"/>
  <rect x="676" y="20" width="64" height="30" rx="9" fill="#242424"/>
  <text x="694" y="40" fill="#ffffff" font-family="Arial, sans-serif" font-size="14" font-weight="700">All</text>
  <path d="M722 32 L728 38 L734 32" fill="none" stroke="#d0d0d0" stroke-width="1.5" stroke-linecap="round" stroke-linejoin="round"/>
  <rect x="468" y="49" width="200" height="104" rx="11" fill="#26232e" stroke="#3a3447"/>
  <text x="481" y="73" fill="#ffffff" font-family="Arial, sans-serif" font-size="13" font-weight="700">Built by OpenAI</text>
  <path d="M641 65 L646 70 L654 59" fill="none" stroke="#ffffff" stroke-width="1.4" stroke-linecap="round" stroke-linejoin="round"/>
  <rect x="474" y="78" width="124" height="38" fill="none" stroke="#ff1744" stroke-width="2"/>
  <text x="481" y="102" fill="#ffffff" font-family="Arial, sans-serif" font-size="14">SpecGuard Plugins</text>
  <line x1="481" y1="116" x2="654" y2="116" stroke="#3d3945"/>
  <text x="483" y="138" fill="#ffffff" font-family="Arial, sans-serif" font-size="18" font-weight="700">+</text>
  <text x="505" y="137" fill="#ffffff" font-family="Arial, sans-serif" font-size="14" font-weight="700">Add more</text>
</svg>
